{"title":"The Equalizer 2014 720p WEB-DL x264 SSloco","uid":11982735,"size":900382755,"categoryP":"video","categoryS":"hd___movies","magnet":"?xt=urn:btih:e022f3da37dd4cf136fa8d12c87b041b4c101817&amp;dn=The+Equalizer+2014+720p+WEB-DL+x264+SSloco&amp;tr=udp%3A%2F%2Ftracker.openbittorrent.com%3A80&amp;tr=udp%3A%2F%2Fopen.demonii.com%3A1337&amp;tr=udp%3A%2F%2Ftracker.coppersurfer.tk%3A6969&amp;tr=udp%3A%2F%2Fexodus.desync.com%3A6969","seeders":1,"leechers":0,"uploader":"myhoes14","files":1,"time":1433264042,"description":"Source:The Equalizer 2014 720p WEB-DL.HDCLUB\n\n\nMedia Info\n\nFormat : MPEG-4\nFormat profile : Base Media\nCodec ID : isom\nFile size : 859 MiB\nDuration : 2h 12mn\nOverall bit rate mode : Variable\nOverall bit rate : 909 Kbps\nEncoded date : UTC 2015-04-08 21:24:33\nTagged date : UTC 2015-04-08 21:24:33\n\nVideo\nID : 1\nFormat : AVC\nFormat/Info : Advanced Video Codec\nFormat profile : &lt;a class=&quot;__cf_email__&quot; href=&quot;/cdn-cgi/l/email-protection&quot; data-cfemail=&quot;6129080609212d554f50&quot;&gt;[email&amp;#160;protected]&lt;/a&gt;&lt;script data-cfhash='f9e31' type=&quot;text/javascript&quot;&gt;\n/* &lt;![CDATA[ */!function(){try{var t=&quot;currentScript&quot;in document?document.currentScript:function(){for(var t=document.getElementsByTagName(&quot;script&quot;),e=t.length;e--;)if(t[e].getAttribute(&quot;data-cfhash&quot;))return t[e]}();if(t&amp;&amp;t.previousSibling){var e,r,n,i,c=t.previousSibling,a=c.getAttribute(&quot;data-cfemail&quot;);if(a){for(e=&quot;&quot;,r=parseInt(a.substr(0,2),16),n=2;a.length-n;n+=2)i=parseInt(a.substr(n,2),16)^r,e+=String.fromCharCode(i);e=document.createTextNode(e),c.parentNode.replaceChild(e,c)}t.parentNode.removeChild(t);}}catch(u){}}()/* ]]&gt; */&lt;/script&gt;\nFormat settings, CABAC : Yes\nFormat settings, ReFrames : 12 frames\nCodec ID : avc1\nCodec ID/Info : Advanced Video Coding\nDuration : 2h 12mn\nBit rate : 750 Kbps\nMaximum bit rate : 8 219 Kbps\nWidth : 1 280 pixels\nHeight : 528 pixels\nDisplay aspect ratio : 2.40:1\nFrame rate mode : Constant\nFrame rate : 23.976 fps\nColor space : YUV\nChroma subsampling : 4:2:0\nBit depth : 8 bits\nScan type : Progressive\nBits/(Pixel*Frame) : 0.046\nStream size : 708 MiB (82%)\nWriting library : x264 core 146 r2538 121396c\nEncoding settings : cabac=1 / ref=12 / deblock=1:-1:-1 / analyse=0x3:0x133 / me=umh / subme=10 / psy=1 / psy_rd=1.00:0.15 / mixed_ref=1 / me_range=24 / chroma_me=1 / trellis=2 / 8x8dct=1 / cqm=0 / deadzone=21,11 / fast_pskip=1 / chroma_qp_offset=-3 / threads=6 / lookahead_threads=1 / sliced_threads=0 / nr=0 / decimate=1 / interlaced=0 / bluray_compat=0 / constrained_intra=0 / bframes=8 / b_pyramid=2 / b_adapt=2 / b_bias=0 / direct=3 / weightb=1 / open_gop=0 / weightp=2 / keyint=240 / keyint_min=23 / scenecut=40 / intra_refresh=0 / rc_lookahead=60 / rc=2pass / mbtree=1 / bitrate=750 / ratetol=1.0 / qcomp=0.60 / qpmin=0 / qpmax=69 / qpstep=4 / cplxblur=20.0 / qblur=0.5 / vbv_maxrate=62500 / vbv_bufsize=78125 / nal_hrd=none / filler=0 / ip_ratio=1.40 / aq=1:1.00\nEncoded date : UTC 2015-04-08 21:24:33\nTagged date : UTC 2015-04-08 21:25:12\nColor primaries : BT.709\nMatrix coefficients : BT.709\nColor range : Limited\n\nAudio\nID : 2\nFormat : AAC\nFormat/Info : Advanced Audio Codec\nFormat profile : LC\nCodec ID : 40\nDuration : 2h 12mn\nBit rate mode : Variable\nBit rate : 155 Kbps\nMaximum bit rate : 269 Kbps\nChannel(s) : 2 channels\nChannel positions : Front: L R\nSampling rate : 48.0 KHz\nCompression mode : Lossy\nStream size : 147 MiB (17%)\nLanguage : English\nEncoded date : UTC 2015-04-08 21:25:00\nTagged date : UTC 2015-04-08 21:25:12\n\nMenu\n00:00:00.000 : 1\n00:06:48.000 : 2\n00:13:01.000 : 3\n00:20:53.000 : 4\n00:25:46.000 : 5\n00:35:23.000 : 6\n00:46:28.000 : 7\n00:55:39.000 : 8\n01:03:54.000 : 9\n01:13:47.000 : 10\n01:20:52.000 : 11\n01:31:02.000 : 12\n01:38:30.000 : 13\n01:47:21.000 : 14\n01:55:30.000 : 15\n01:59:53.000 : 16","torrent":{"xt":"urn:btih:e022f3da37dd4cf136fa8d12c87b041b4c101817","amp;dn":"The+Equalizer+2014+720p+WEB-DL+x264+SSloco","amp;tr":["udp%3A%2F%2Ftracker.openbittorrent.com%3A80","udp%3A%2F%2Fopen.demonii.com%3A1337","udp%3A%2F%2Ftracker.coppersurfer.tk%3A6969","udp%3A%2F%2Fexodus.desync.com%3A6969"],"infoHash":"e022f3da37dd4cf136fa8d12c87b041b4c101817","infoHashBuffer":{"type":"Buffer","data":[224,34,243,218,55,221,76,241,54,250,141,18,200,123,4,27,76,16,24,23]},"announce":[],"urlList":[]}}